<?xml version="1.0" encoding="utf-8"?>
<!-- Generator: Adobe Illustrator 19.2.0, SVG Export Plug-In . SVG Version: 6.00 Build 0)  -->
<svg version="1.0" id="Layer_1" xmlns="http://www.w3.org/2000/svg" xmlns:xlink="http://www.w3.org/1999/xlink" x="0px" y="0px"
	 viewBox="0 0 158.5 179.3" style="enable-background:new 0 0 158.5 179.3;" xml:space="preserve">
<g id="Background" style="display:none;">
	<g style="display:inline;">
		<rect width="158.5" height="179.9"/>
	</g>
</g>
<path id="Outer_circle" style="opacity:0.1;fill:#FFFFFF;" d="M79.3,0C45,0,15.2,19.2,0,47.5v84.9c15.2,28.3,45,47.5,79.3,47.5
	c34.2,0,64-19.1,79.2-47.3V47.3C143.3,19.1,113.6,0,79.3,0z M131.4,134.8c1.8,5.7,3.1,9.9,3.1,9.9s2.2,5.5-6,5.5h-16
	c-9.8,5.4-21.1,8.5-33.2,8.5c-12,0-23.3-3.1-33.1-8.5H28.2c-8.2,0-6-5.5-6-5.5s1.6-5,3.6-11.5c-9.6-11.8-15.3-26.9-15.3-43.3
	c0-36.9,29.1-67,65.6-68.7c0,0,0,0,0.1,0c0.5,0,1.1,0,1.7,0h0.1c0.3,0,0.4,0,0.4,0s0.4-0.1,0.9-0.1c0.2,0,0.3,0,0.5,0
	c37.8,0.2,68.3,31,68.3,68.8C148,107.1,141.8,122.8,131.4,134.8z"/>
<g id="Middle_circle" style="opacity:0.14;">
	<path style="fill:#FFFFFF;" d="M112.4,150.2c-9.8,5.4-21.1,8.5-33.2,8.5c-12,0-23.3-3.1-33.1-8.5c14.6,0,32.2,0,32.2,0
		S97.5,150.2,112.4,150.2z"/>
	<path style="fill:#FFFFFF;" d="M77.9,21.1c0.3,0,0.4,0,0.4,0s0.4-0.1,0.9-0.1C78.8,21.1,78.3,21.1,77.9,21.1z"/>
	<path style="fill:#FFFFFF;" d="M148,89.9c0,17.2-6.3,32.9-16.7,44.9c-3.6-11.6-9.2-29.6-9.6-31.1c0,0,0-0.1,0-0.2
		c1.4-4.3,2.1-9,2.1-13.8c0-25.1-20.4-45.5-45.5-45.5S32.8,64.6,32.8,89.8c0,4.8,0.7,9.4,2.1,13.8c0,0,0,0.1,0,0.2
		c-0.4,1.5-5.5,17.9-9.1,29.5c-9.6-11.8-15.3-26.9-15.3-43.3c0-36.9,29.1-67,65.6-68.7c-1.9,0.2-4.5,1.3-5.5,4.7
		C68.9,31.5,67.7,36,67.7,36s-1,2.1,1.5,2.7c1.5,0.3,4.4,0.8,9.1,0.8s7.6-0.5,9.1-0.8c2.5-0.5,1.5-2.7,1.5-2.7s-1.2-4.5-2.8-10.2
		c-1.2-3.9-4.4-4.7-6.4-4.7C117.5,21.4,148,52.1,148,89.9z"/>
</g>
<g id="VLC_Logo_1_" style="opacity:0.25;">
	<path style="fill:#FFFFFF;" d="M128.4,150.2c-8.2,0-50.1,0-50.1,0s-41.9,0-50.1,0s-6-5.5-6-5.5s12-38.7,12.7-41
		c0.5-1.8,3-1.7,3-1.7h8.7c0,13,17.5,16.5,31.8,16.5c14.3,0,31.8-3.5,31.8-16.5h8.7c0,0,2.5-0.1,3,1.7c0.7,2.3,12.7,41,12.7,41
		S136.6,150.2,128.4,150.2z"/>
	<path style="fill:#FFFFFF;" d="M101.8,88.3c-2.8,1.3-12.2,4.3-23.4,4.3c-11.2,0-20.6-3-23.4-4.3c-2.8-1.3-1.7-6.2-1.7-6.2
		s5-16,5.5-17.7c0.5-1.7,0.8-2.6,2.8-1.5c5.1,3.1,16.8,2.8,16.8,2.8S90,66.1,95.1,63c2-1.2,2.3-0.2,2.8,1.5
		c0.5,1.7,5.5,17.7,5.5,17.7S104.6,87,101.8,88.3z"/>
	<path style="fill:#FFFFFF;" d="M87.4,38.7c-1.5,0.3-4.4,0.8-9.1,0.8s-7.6-0.5-9.1-0.8c-2.5-0.5-1.5-2.7-1.5-2.7s1.2-4.5,2.8-10.2
		c1.7-5.7,7.8-4.7,7.8-4.7s6.1-1,7.8,4.7c1.7,5.7,2.8,10.2,2.8,10.2S89.9,38.1,87.4,38.7z"/>
</g>
<path id="Inner_circle" style="opacity:0.18;fill:#FFFFFF;" d="M78.3,44.3c-25.1,0-45.5,20.4-45.5,45.5c0,4.8,0.7,9.4,2.1,13.8
	c0.6-1.6,3-1.5,3-1.5h8.7c0,13,17.5,16.5,31.8,16.5s31.8-3.5,31.8-16.5h8.7c0,0,2.4-0.1,3,1.5c1.4-4.3,2.1-9,2.1-13.8
	C123.8,64.6,103.5,44.3,78.3,44.3z M101.8,88.3c-2.8,1.3-12.2,4.3-23.4,4.3s-20.6-3-23.4-4.3c-2.8-1.3-1.7-6.2-1.7-6.2
	s5-16,5.5-17.7c0.5-1.7,0.8-2.6,2.8-1.5c5.1,3.1,16.8,2.8,16.8,2.8S90,66.1,95.1,63c2-1.2,2.3-0.2,2.8,1.5
	c0.5,1.7,5.5,17.7,5.5,17.7S104.6,87,101.8,88.3z"/>
</svg>
